<svg width="624" height="75" viewBox="0 0 624 75" fill="none" xmlns="http://www.w3.org/2000/svg">
<path d="M285.16 62.9995H275V23.8354L262.871 27.5972V19.3354L284.07 11.7417H285.16V62.9995Z" fill="#0391D3"/>
<path d="M309.535 29.23L310.285 28.3042C311.129 27.2104 311.609 25.5698 311.727 23.3823L311.926 18.3198H320.094V29.23H321.723V34.7261H319.555V30.9995H310.707V34.7261H308.539L308.551 29.23H309.535ZM312.102 29.23H317.926V20.3237H314.023L313.895 23.3472C313.762 25.8706 313.164 27.8315 312.102 29.23ZM329.387 31.2339C327.668 31.2339 326.27 30.6714 325.191 29.5464C324.113 28.4136 323.574 26.9019 323.574 25.0112V24.6128C323.574 23.355 323.812 22.2339 324.289 21.2495C324.773 20.2573 325.445 19.4839 326.305 18.9292C327.172 18.3667 328.109 18.0854 329.117 18.0854C330.766 18.0854 332.047 18.6284 332.961 19.7144C333.875 20.8003 334.332 22.355 334.332 24.3784V25.2808H325.742C325.773 26.5308 326.137 27.5425 326.832 28.3159C327.535 29.0815 328.426 29.4644 329.504 29.4644C330.27 29.4644 330.918 29.3081 331.449 28.9956C331.98 28.6831 332.445 28.269 332.844 27.7534L334.168 28.7847C333.105 30.4175 331.512 31.2339 329.387 31.2339ZM329.117 19.8667C328.242 19.8667 327.508 20.187 326.914 20.8276C326.32 21.4604 325.953 22.3511 325.812 23.4995H332.164V23.3354C332.102 22.2339 331.805 21.3823 331.273 20.7808C330.742 20.1714 330.023 19.8667 329.117 19.8667ZM347.211 30.9995H345.043V25.5854H339.219V30.9995H337.039V18.3198H339.219V23.8159H345.043V18.3198H347.211V30.9995ZM353.07 22.6909H356.363C357.801 22.7065 358.938 23.0815 359.773 23.8159C360.609 24.5503 361.027 25.5464 361.027 26.8042C361.027 28.0698 360.598 29.0854 359.738 29.8511C358.879 30.6167 357.723 30.9995 356.27 30.9995H350.902V18.3198H353.07V22.6909ZM353.07 24.4604V29.23H356.293C357.105 29.23 357.734 29.0229 358.18 28.6089C358.625 28.187 358.848 27.6128 358.848 26.8862C358.848 26.1831 358.629 25.6089 358.191 25.1636C357.762 24.7104 357.156 24.4761 356.375 24.4604H353.07Z" fill="black"/>
<path d="M320.352 54.8003C320.352 56.73 319.91 58.2847 319.027 59.4644C318.145 60.644 316.949 61.2339 315.441 61.2339C313.902 61.2339 312.691 60.7456 311.809 59.769V65.8745H309.641V48.3198H311.621L311.727 49.7261C312.609 48.6323 313.836 48.0854 315.406 48.0854C316.93 48.0854 318.133 48.6597 319.016 49.8081C319.906 50.9565 320.352 52.5542 320.352 54.6011V54.8003ZM318.184 54.5542C318.184 53.1245 317.879 51.9956 317.27 51.1675C316.66 50.3394 315.824 49.9253 314.762 49.9253C313.449 49.9253 312.465 50.5073 311.809 51.6714V57.73C312.457 58.8862 313.449 59.4644 314.785 59.4644C315.824 59.4644 316.648 59.0542 317.258 58.2339C317.875 57.4058 318.184 56.1792 318.184 54.5542ZM328.379 61.2339C326.66 61.2339 325.262 60.6714 324.184 59.5464C323.105 58.4136 322.566 56.9019 322.566 55.0112V54.6128C322.566 53.355 322.805 52.2339 323.281 51.2495C323.766 50.2573 324.438 49.4839 325.297 48.9292C326.164 48.3667 327.102 48.0854 328.109 48.0854C329.758 48.0854 331.039 48.6284 331.953 49.7144C332.867 50.8003 333.324 52.355 333.324 54.3784V55.2808H324.734C324.766 56.5308 325.129 57.5425 325.824 58.3159C326.527 59.0815 327.418 59.4644 328.496 59.4644C329.262 59.4644 329.91 59.3081 330.441 58.9956C330.973 58.6831 331.438 58.269 331.836 57.7534L333.16 58.7847C332.098 60.4175 330.504 61.2339 328.379 61.2339ZM328.109 49.8667C327.234 49.8667 326.5 50.187 325.906 50.8276C325.312 51.4604 324.945 52.3511 324.805 53.4995H331.156V53.3354C331.094 52.2339 330.797 51.3823 330.266 50.7808C329.734 50.1714 329.016 49.8667 328.109 49.8667ZM343.145 58.1284L347.457 48.3198H350.164V60.9995H347.996V51.7769L343.895 60.9995H342.395L338.211 51.5776V60.9995H336.043V48.3198H338.855L343.145 58.1284ZM353.082 54.5425C353.082 53.3003 353.324 52.1831 353.809 51.1909C354.301 50.1987 354.98 49.4331 355.848 48.894C356.723 48.355 357.719 48.0854 358.836 48.0854C360.562 48.0854 361.957 48.6831 363.02 49.8784C364.09 51.0737 364.625 52.6636 364.625 54.6479V54.8003C364.625 56.0347 364.387 57.144 363.91 58.1284C363.441 59.105 362.766 59.8667 361.883 60.4136C361.008 60.9604 360 61.2339 358.859 61.2339C357.141 61.2339 355.746 60.6362 354.676 59.4409C353.613 58.2456 353.082 56.6636 353.082 54.6948V54.5425ZM355.262 54.8003C355.262 56.2065 355.586 57.3354 356.234 58.187C356.891 59.0386 357.766 59.4644 358.859 59.4644C359.961 59.4644 360.836 59.0347 361.484 58.1753C362.133 57.3081 362.457 56.0972 362.457 54.5425C362.457 53.1519 362.125 52.0269 361.461 51.1675C360.805 50.3003 359.93 49.8667 358.836 49.8667C357.766 49.8667 356.902 50.2925 356.246 51.144C355.59 51.9956 355.262 53.2144 355.262 54.8003ZM377.703 60.9995H375.535V55.5854H369.711V60.9995H367.531V48.3198H369.711V53.8159H375.535V48.3198H377.703V60.9995ZM390.617 50.0776H386.363V60.9995H384.195V50.0776H380.023V48.3198H390.617V50.0776ZM400.367 60.9995C400.242 60.7495 400.141 60.3042 400.062 59.6636C399.055 60.7104 397.852 61.2339 396.453 61.2339C395.203 61.2339 394.176 60.8823 393.371 60.1792C392.574 59.4683 392.176 58.5698 392.176 57.4839C392.176 56.1636 392.676 55.1401 393.676 54.4136C394.684 53.6792 396.098 53.312 397.918 53.312H400.027V52.3159C400.027 51.5581 399.801 50.9565 399.348 50.5112C398.895 50.0581 398.227 49.8315 397.344 49.8315C396.57 49.8315 395.922 50.0269 395.398 50.4175C394.875 50.8081 394.613 51.2808 394.613 51.8354H392.434C392.434 51.2026 392.656 50.5933 393.102 50.0073C393.555 49.4136 394.164 48.9448 394.93 48.6011C395.703 48.2573 396.551 48.0854 397.473 48.0854C398.934 48.0854 400.078 48.4526 400.906 49.187C401.734 49.9136 402.164 50.9175 402.195 52.1987V58.0347C402.195 59.1987 402.344 60.1245 402.641 60.812V60.9995H400.367ZM396.77 59.3472C397.449 59.3472 398.094 59.1714 398.703 58.8198C399.312 58.4683 399.754 58.0112 400.027 57.4487V54.8472H398.328C395.672 54.8472 394.344 55.6245 394.344 57.1792C394.344 57.8589 394.57 58.3901 395.023 58.7729C395.477 59.1558 396.059 59.3472 396.77 59.3472Z" fill="#515151"/>
<path d="M480.816 32.9062H486.23C488.809 32.9062 490.719 32.2617 491.961 30.9727C493.203 29.6836 493.824 27.9727 493.824 25.8398C493.824 23.7773 493.203 22.1719 491.961 21.0234C490.742 19.875 489.055 19.3008 486.898 19.3008C484.953 19.3008 483.324 19.8398 482.012 20.918C480.699 21.9727 480.043 23.3555 480.043 25.0664H469.883C469.883 22.3945 470.598 20.0039 472.027 17.8945C473.48 15.7617 475.496 14.0977 478.074 12.9023C480.676 11.707 483.535 11.1094 486.652 11.1094C492.066 11.1094 496.309 12.4102 499.379 15.0117C502.449 17.5898 503.984 21.1523 503.984 25.6992C503.984 28.043 503.27 30.1992 501.84 32.168C500.41 34.1367 498.535 35.6484 496.215 36.7031C499.098 37.7344 501.242 39.2812 502.648 41.3438C504.078 43.4062 504.793 45.8438 504.793 48.6562C504.793 53.2031 503.129 56.8477 499.801 59.5898C496.496 62.332 492.113 63.7031 486.652 63.7031C481.543 63.7031 477.359 62.3555 474.102 59.6602C470.867 56.9648 469.25 53.4023 469.25 48.9727H479.41C479.41 50.8945 480.125 52.4648 481.555 53.6836C483.008 54.9023 484.789 55.5117 486.898 55.5117C489.312 55.5117 491.199 54.8789 492.559 53.6133C493.941 52.3242 494.633 50.625 494.633 48.5156C494.633 43.4062 491.82 40.8516 486.195 40.8516H480.816V32.9062Z" fill="#0391D3"/>
<path d="M527.832 20.1133H521.984V31H519.805V18.3203H527.832V20.1133ZM528.91 24.543C528.91 23.3008 529.152 22.1836 529.637 21.1914C530.129 20.1992 530.809 19.4336 531.676 18.8945C532.551 18.3555 533.547 18.0859 534.664 18.0859C536.391 18.0859 537.785 18.6836 538.848 19.8789C539.918 21.0742 540.453 22.6641 540.453 24.6484V24.8008C540.453 26.0352 540.215 27.1445 539.738 28.1289C539.27 29.1055 538.594 29.8672 537.711 30.4141C536.836 30.9609 535.828 31.2344 534.688 31.2344C532.969 31.2344 531.574 30.6367 530.504 29.4414C529.441 28.2461 528.91 26.6641 528.91 24.6953V24.543ZM531.09 24.8008C531.09 26.207 531.414 27.3359 532.062 28.1875C532.719 29.0391 533.594 29.4648 534.688 29.4648C535.789 29.4648 536.664 29.0352 537.312 28.1758C537.961 27.3086 538.285 26.0977 538.285 24.543C538.285 23.1523 537.953 22.0273 537.289 21.168C536.633 20.3008 535.758 19.8672 534.664 19.8672C533.594 19.8672 532.73 20.293 532.074 21.1445C531.418 21.9961 531.09 23.2148 531.09 24.8008ZM542.223 29.2305L542.973 28.3047C543.816 27.2109 544.297 25.5703 544.414 23.3828L544.613 18.3203H552.781V29.2305H554.41V34.7266H552.242V31H543.395V34.7266H541.227L541.238 29.2305H542.223ZM544.789 29.2305H550.613V20.3242H546.711L546.582 23.3477C546.449 25.8711 545.852 27.832 544.789 29.2305ZM564.641 31C564.516 30.75 564.414 30.3047 564.336 29.6641C563.328 30.7109 562.125 31.2344 560.727 31.2344C559.477 31.2344 558.449 30.8828 557.645 30.1797C556.848 29.4688 556.449 28.5703 556.449 27.4844C556.449 26.1641 556.949 25.1406 557.949 24.4141C558.957 23.6797 560.371 23.3125 562.191 23.3125H564.301V22.3164C564.301 21.5586 564.074 20.957 563.621 20.5117C563.168 20.0586 562.5 19.832 561.617 19.832C560.844 19.832 560.195 20.0273 559.672 20.418C559.148 20.8086 558.887 21.2812 558.887 21.8359H556.707C556.707 21.2031 556.93 20.5938 557.375 20.0078C557.828 19.4141 558.438 18.9453 559.203 18.6016C559.977 18.2578 560.824 18.0859 561.746 18.0859C563.207 18.0859 564.352 18.4531 565.18 19.1875C566.008 19.9141 566.438 20.918 566.469 22.1992V28.0352C566.469 29.1992 566.617 30.125 566.914 30.8125V31H564.641ZM561.043 29.3477C561.723 29.3477 562.367 29.1719 562.977 28.8203C563.586 28.4688 564.027 28.0117 564.301 27.4492V24.8477H562.602C559.945 24.8477 558.617 25.625 558.617 27.1797C558.617 27.8594 558.844 28.3906 559.297 28.7734C559.75 29.1562 560.332 29.3477 561.043 29.3477Z" fill="black"/>
<path d="M527.832 50.1133H521.984V61H519.805V48.3203H527.832V50.1133ZM537.547 61C537.422 60.75 537.32 60.3047 537.242 59.6641C536.234 60.7109 535.031 61.2344 533.633 61.2344C532.383 61.2344 531.355 60.8828 530.551 60.1797C529.754 59.4688 529.355 58.5703 529.355 57.4844C529.355 56.1641 529.855 55.1406 530.855 54.4141C531.863 53.6797 533.277 53.3125 535.098 53.3125H537.207V52.3164C537.207 51.5586 536.98 50.957 536.527 50.5117C536.074 50.0586 535.406 49.832 534.523 49.832C533.75 49.832 533.102 50.0273 532.578 50.418C532.055 50.8086 531.793 51.2812 531.793 51.8359H529.613C529.613 51.2031 529.836 50.5938 530.281 50.0078C530.734 49.4141 531.344 48.9453 532.109 48.6016C532.883 48.2578 533.73 48.0859 534.652 48.0859C536.113 48.0859 537.258 48.4531 538.086 49.1875C538.914 49.9141 539.344 50.918 539.375 52.1992V58.0352C539.375 59.1992 539.523 60.125 539.82 60.8125V61H537.547ZM533.949 59.3477C534.629 59.3477 535.273 59.1719 535.883 58.8203C536.492 58.4688 536.934 58.0117 537.207 57.4492V54.8477H535.508C532.852 54.8477 531.523 55.625 531.523 57.1797C531.523 57.8594 531.75 58.3906 532.203 58.7734C532.656 59.1562 533.238 59.3477 533.949 59.3477ZM553.484 54.8008C553.484 56.7305 553.043 58.2852 552.16 59.4648C551.277 60.6445 550.082 61.2344 548.574 61.2344C547.035 61.2344 545.824 60.7461 544.941 59.7695V65.875H542.773V48.3203H544.754L544.859 49.7266C545.742 48.6328 546.969 48.0859 548.539 48.0859C550.062 48.0859 551.266 48.6602 552.148 49.8086C553.039 50.957 553.484 52.5547 553.484 54.6016V54.8008ZM551.316 54.5547C551.316 53.125 551.012 51.9961 550.402 51.168C549.793 50.3398 548.957 49.9258 547.895 49.9258C546.582 49.9258 545.598 50.5078 544.941 51.6719V57.7305C545.59 58.8867 546.582 59.4648 547.918 59.4648C548.957 59.4648 549.781 59.0547 550.391 58.2344C551.008 57.4062 551.316 56.1797 551.316 54.5547ZM564.078 61C563.953 60.75 563.852 60.3047 563.773 59.6641C562.766 60.7109 561.562 61.2344 560.164 61.2344C558.914 61.2344 557.887 60.8828 557.082 60.1797C556.285 59.4688 555.887 58.5703 555.887 57.4844C555.887 56.1641 556.387 55.1406 557.387 54.4141C558.395 53.6797 559.809 53.3125 561.629 53.3125H563.738V52.3164C563.738 51.5586 563.512 50.957 563.059 50.5117C562.605 50.0586 561.938 49.832 561.055 49.832C560.281 49.832 559.633 50.0273 559.109 50.418C558.586 50.8086 558.324 51.2812 558.324 51.8359H556.145C556.145 51.2031 556.367 50.5938 556.812 50.0078C557.266 49.4141 557.875 48.9453 558.641 48.6016C559.414 48.2578 560.262 48.0859 561.184 48.0859C562.645 48.0859 563.789 48.4531 564.617 49.1875C565.445 49.9141 565.875 50.918 565.906 52.1992V58.0352C565.906 59.1992 566.055 60.125 566.352 60.8125V61H564.078ZM560.48 59.3477C561.16 59.3477 561.805 59.1719 562.414 58.8203C563.023 58.4688 563.465 58.0117 563.738 57.4492V54.8477H562.039C559.383 54.8477 558.055 55.625 558.055 57.1797C558.055 57.8594 558.281 58.3906 558.734 58.7734C559.188 59.1562 559.77 59.3477 560.48 59.3477ZM579.664 61H577.496V55.5859H571.672V61H569.492V48.3203H571.672V53.8164H577.496V48.3203H579.664V61ZM592.578 50.0781H588.324V61H586.156V50.0781H581.984V48.3203H592.578V50.0781ZM602.891 48.3203H605.059V61H602.891V51.7539L597.043 61H594.875V48.3203H597.043V57.5781L602.891 48.3203ZM616.742 48.3203H618.91V61H616.742V51.7539L610.895 61H608.727V48.3203H610.895V57.5781L616.742 48.3203Z" fill="#515151"/>
<path d="M37.9336 41.8359C37.9336 48.9141 36.4688 54.3281 33.5391 58.0781C30.6094 61.8281 26.3203 63.7031 20.6719 63.7031C15.0938 63.7031 10.8281 61.8633 7.875 58.1836C4.92188 54.5039 3.41016 49.2305 3.33984 42.3633V32.9414C3.33984 25.793 4.81641 20.3672 7.76953 16.6641C10.7461 12.9609 15.0234 11.1094 20.6016 11.1094C26.1797 11.1094 30.4453 12.9492 33.3984 16.6289C36.3516 20.2852 37.8633 25.5469 37.9336 32.4141V41.8359ZM27.7734 31.5C27.7734 27.2578 27.1875 24.1758 26.0156 22.2539C24.8672 20.3086 23.0625 19.3359 20.6016 19.3359C18.2109 19.3359 16.4414 20.2617 15.293 22.1133C14.168 23.9414 13.5703 26.8125 13.5 30.7266V43.1719C13.5 47.3438 14.0625 50.4492 15.1875 52.4883C16.3359 54.5039 18.1641 55.5117 20.6719 55.5117C23.1562 55.5117 24.9492 54.5391 26.0508 52.5938C27.1523 50.6484 27.7266 47.6719 27.7734 43.6641V31.5Z" fill="#0391D3"/>
<path d="M55.7708 16.148H64.9868V17.552H55.7708V16.148ZM61.1888 29H59.5688V20.36H55.7708V18.956H64.9868V20.36H61.1888V29ZM52.5352 57.2305L53.2852 56.3047C54.1289 55.2109 54.6094 53.5703 54.7266 51.3828L54.9258 46.3203H63.0938V57.2305H64.7227V62.7266H62.5547V59H53.707V62.7266H51.5391L51.5508 57.2305H52.5352ZM55.1016 57.2305H60.9258V48.3242H57.0234L56.8945 51.3477C56.7617 53.8711 56.1641 55.832 55.1016 57.2305ZM75.3281 46.3203H77.4961V59H75.3281V49.7539L69.4805 59H67.3125V46.3203H69.4805V55.5781L75.3281 46.3203ZM88.8047 59C88.6797 58.75 88.5781 58.3047 88.5 57.6641C87.4922 58.7109 86.2891 59.2344 84.8906 59.2344C83.6406 59.2344 82.6133 58.8828 81.8086 58.1797C81.0117 57.4688 80.6133 56.5703 80.6133 55.4844C80.6133 54.1641 81.1133 53.1406 82.1133 52.4141C83.1211 51.6797 84.5352 51.3125 86.3555 51.3125H88.4648V50.3164C88.4648 49.5586 88.2383 48.957 87.7852 48.5117C87.332 48.0586 86.6641 47.832 85.7812 47.832C85.0078 47.832 84.3594 48.0273 83.8359 48.418C83.3125 48.8086 83.0508 49.2812 83.0508 49.8359H80.8711C80.8711 49.2031 81.0938 48.5938 81.5391 48.0078C81.9922 47.4141 82.6016 46.9453 83.3672 46.6016C84.1406 46.2578 84.9883 46.0859 85.9102 46.0859C87.3711 46.0859 88.5156 46.4531 89.3438 47.1875C90.1719 47.9141 90.6016 48.918 90.6328 50.1992V56.0352C90.6328 57.1992 90.7812 58.125 91.0781 58.8125V59H88.8047ZM85.207 57.3477C85.8867 57.3477 86.5312 57.1719 87.1406 56.8203C87.75 56.4688 88.1914 56.0117 88.4648 55.4492V52.8477H86.7656C84.1094 52.8477 82.7812 53.625 82.7812 55.1797C82.7812 55.8594 83.0078 56.3906 83.4609 56.7734C83.9141 57.1562 84.4961 57.3477 85.207 57.3477ZM102.223 48.1133H96.375V59H94.1953V46.3203H102.223V48.1133ZM114.469 59H112.301V53.5859H106.477V59H104.297V46.3203H106.477V51.8164H112.301V46.3203H114.469V59ZM117.387 52.543C117.387 51.3008 117.629 50.1836 118.113 49.1914C118.605 48.1992 119.285 47.4336 120.152 46.8945C121.027 46.3555 122.023 46.0859 123.141 46.0859C124.867 46.0859 126.262 46.6836 127.324 47.8789C128.395 49.0742 128.93 50.6641 128.93 52.6484V52.8008C128.93 54.0352 128.691 55.1445 128.215 56.1289C127.746 57.1055 127.07 57.8672 126.188 58.4141C125.312 58.9609 124.305 59.2344 123.164 59.2344C121.445 59.2344 120.051 58.6367 118.98 57.4414C117.918 56.2461 117.387 54.6641 117.387 52.6953V52.543ZM119.566 52.8008C119.566 54.207 119.891 55.3359 120.539 56.1875C121.195 57.0391 122.07 57.4648 123.164 57.4648C124.266 57.4648 125.141 57.0352 125.789 56.1758C126.438 55.3086 126.762 54.0977 126.762 52.543C126.762 51.1523 126.43 50.0273 125.766 49.168C125.109 48.3008 124.234 47.8672 123.141 47.8672C122.07 47.8672 121.207 48.293 120.551 49.1445C119.895 49.9961 119.566 51.2148 119.566 52.8008ZM136.734 57.4648C137.508 57.4648 138.184 57.2305 138.762 56.7617C139.34 56.293 139.66 55.707 139.723 55.0039H141.773C141.734 55.7305 141.484 56.4219 141.023 57.0781C140.562 57.7344 139.945 58.2578 139.172 58.6484C138.406 59.0391 137.594 59.2344 136.734 59.2344C135.008 59.2344 133.633 58.6602 132.609 57.5117C131.594 56.3555 131.086 54.7773 131.086 52.7773V52.4141C131.086 51.1797 131.312 50.082 131.766 49.1211C132.219 48.1602 132.867 47.4141 133.711 46.8828C134.562 46.3516 135.566 46.0859 136.723 46.0859C138.145 46.0859 139.324 46.5117 140.262 47.3633C141.207 48.2148 141.711 49.3203 141.773 50.6797H139.723C139.66 49.8594 139.348 49.1875 138.785 48.6641C138.23 48.1328 137.543 47.8672 136.723 47.8672C135.621 47.8672 134.766 48.2656 134.156 49.0625C133.555 49.8516 133.254 50.9961 133.254 52.4961V52.9062C133.254 54.3672 133.555 55.4922 134.156 56.2812C134.758 57.0703 135.617 57.4648 136.734 57.4648ZM153.633 48.0781H149.379V59H147.211V48.0781H143.039V46.3203H153.633V48.0781ZM163.945 46.3203H166.113V59H163.945V49.7539L158.098 59H155.93V46.3203H158.098V55.5781L163.945 46.3203ZM173.543 53.5977H171.961V59H169.781V46.3203H171.961V51.6875H173.379L177.645 46.3203H180.27L175.254 52.4141L180.691 59H177.938L173.543 53.5977ZM190.383 59C190.258 58.75 190.156 58.3047 190.078 57.6641C189.07 58.7109 187.867 59.2344 186.469 59.2344C185.219 59.2344 184.191 58.8828 183.387 58.1797C182.59 57.4688 182.191 56.5703 182.191 55.4844C182.191 54.1641 182.691 53.1406 183.691 52.4141C184.699 51.6797 186.113 51.3125 187.934 51.3125H190.043V50.3164C190.043 49.5586 189.816 48.957 189.363 48.5117C188.91 48.0586 188.242 47.832 187.359 47.832C186.586 47.832 185.938 48.0273 185.414 48.418C184.891 48.8086 184.629 49.2812 184.629 49.8359H182.449C182.449 49.2031 182.672 48.5938 183.117 48.0078C183.57 47.4141 184.18 46.9453 184.945 46.6016C185.719 46.2578 186.566 46.0859 187.488 46.0859C188.949 46.0859 190.094 46.4531 190.922 47.1875C191.75 47.9141 192.18 48.918 192.211 50.1992V56.0352C192.211 57.1992 192.359 58.125 192.656 58.8125V59H190.383ZM186.785 57.3477C187.465 57.3477 188.109 57.1719 188.719 56.8203C189.328 56.4688 189.77 56.0117 190.043 55.4492V52.8477H188.344C185.688 52.8477 184.359 53.625 184.359 55.1797C184.359 55.8594 184.586 56.3906 185.039 56.7734C185.492 57.1562 186.074 57.3477 186.785 57.3477Z" fill="#515151"/>
<rect x="225" width="2" height="75" fill="#EEEEEE"/>
<rect x="435" width="2" height="75" fill="#EEEEEE"/>
</svg>
